<?xml version="1.0" encoding="UTF-8"?>
<svg version="1.1" xmlns="http://www.w3.org/2000/svg" width="279" height="50">
<path d="M0 0 C1.79824219 0.00966797 1.79824219 0.00966797 3.6328125 0.01953125 C5.4890625 0.04466797 5.4890625 0.04466797 7.3828125 0.0703125 C8.64351562 0.07933594 9.90421875 0.08835937 11.203125 0.09765625 C14.3048829 0.12115442 17.40624902 0.15400916 20.5078125 0.1953125 C20.5078125 3.8253125 20.5078125 7.4553125 20.5078125 11.1953125 C12.2578125 11.1953125 4.0078125 11.1953125 -4.4921875 11.1953125 C-4.4921875 11.8553125 -4.4921875 12.5153125 -4.4921875 13.1953125 C-3.63052979 13.1638916 -3.63052979 13.1638916 -2.75146484 13.13183594 C-0.12355376 13.04817486 2.5040764 12.9964979 5.1328125 12.9453125 C6.48826172 12.89503906 6.48826172 12.89503906 7.87109375 12.84375 C13.63107425 12.75966269 16.96174112 13.2884202 21.5078125 17.1953125 C24.07280775 20.17401667 24.75832052 22.34837914 24.5703125 26.1953125 C24.02778788 29.4199813 23.10817853 31.0031335 20.6328125 33.1328125 C16.13325166 36.10252265 13.16350702 36.31607972 7.87109375 36.29296875 C6.57236328 36.28974609 5.27363281 36.28652344 3.93554688 36.28320312 C2.56380142 36.27484781 1.19205663 36.26638287 -0.1796875 36.2578125 C-1.56314945 36.25279585 -2.94661313 36.24823323 -4.33007812 36.24414062 C-7.71749145 36.23233779 -11.10481783 36.21587269 -14.4921875 36.1953125 C-14.4921875 32.5653125 -14.4921875 28.9353125 -14.4921875 25.1953125 C-2.1171875 24.7003125 -2.1171875 24.7003125 10.5078125 24.1953125 C4.15144466 23.98582572 4.15144466 23.98582572 -2.20581055 23.80737305 C-8.18688288 23.55969338 -11.82308625 22.68033781 -16.3046875 18.5078125 C-18.06643868 15.07703388 -18.24944832 11.91017691 -17.4921875 8.1953125 C-13.07554101 1.18063867 -7.96456984 -0.07585305 0 0 Z " fill="#E76B2A" transform="translate(100.4921875,5.8046875)"/>
<path d="M0 0 C4.57596606 2.74040905 8.04543271 6.24711542 10.44921875 11.0546875 C10.53393239 12.86810592 10.55642958 14.68462911 10.546875 16.5 C10.54365234 17.57636719 10.54042969 18.65273438 10.53710938 19.76171875 C10.52454102 21.45361328 10.52454102 21.45361328 10.51171875 23.1796875 C10.50720703 24.31535156 10.50269531 25.45101562 10.49804688 26.62109375 C10.48623503 29.43231397 10.46829916 32.24350722 10.44921875 35.0546875 C6.48921875 35.0546875 2.52921875 35.0546875 -1.55078125 35.0546875 C-1.55078125 32.4146875 -1.55078125 29.7746875 -1.55078125 27.0546875 C-7.16078125 27.0546875 -12.77078125 27.0546875 -18.55078125 27.0546875 C-18.55078125 29.6946875 -18.55078125 32.3346875 -18.55078125 35.0546875 C-22.51078125 35.0546875 -26.47078125 35.0546875 -30.55078125 35.0546875 C-30.65894175 31.17893642 -30.73818445 27.30621791 -30.80078125 23.4296875 C-30.83429688 22.33527344 -30.8678125 21.24085937 -30.90234375 20.11328125 C-30.97947277 13.75013727 -30.88688042 9.85848293 -26.55078125 5.0546875 C-19.38014446 -1.56436185 -9.2836161 -3.44048254 0 0 Z M-17.55078125 11.0546875 C-19.58749754 14.06126868 -19.55078125 15.24565346 -19.55078125 19.0546875 C-13.28078125 19.0546875 -7.01078125 19.0546875 -0.55078125 19.0546875 C-1.02055697 12.72444224 -1.02055697 12.72444224 -2.61328125 10.1796875 C-7.81714401 7.15808977 -13.00099081 7.17398389 -17.55078125 11.0546875 Z " fill="#E86C2A" transform="translate(215.55078125,6.9453125)"/>
<path d="M0 0 C7.1775 -0.1546875 7.1775 -0.1546875 14.5 -0.3125 C15.99337891 -0.35802002 17.48675781 -0.40354004 19.02539062 -0.45043945 C25.78288465 -0.52086788 30.99061655 -0.49312709 36.58740234 3.54492188 C39.26951467 6.30769226 40.49588715 9.21215203 41 13 C40.9405688 16.95960367 40.04795014 19.79223746 37.4375 22.80078125 C31.79430143 27.89668685 27.23216315 28.1484259 19.75 28.0625 C19.00492188 28.05798828 18.25984375 28.05347656 17.4921875 28.04882812 C15.6614236 28.03709246 13.83070127 28.0191585 12 28 C12 30.31 12 32.62 12 35 C8.04 35 4.08 35 0 35 C0 23.45 0 11.9 0 0 Z M11 9 C11 12.3 11 15.6 11 19 C13.24940295 19.08119503 15.49964871 19.13927819 17.75 19.1875 C19.00296875 19.22230469 20.2559375 19.25710937 21.546875 19.29296875 C25.14109357 18.98802939 26.44725126 18.45605371 29 16 C28.42547254 12.06924356 28.42547254 12.06924356 26 9 C23.41935871 8.85502015 20.95056116 8.81322455 18.375 8.875 C17.66859375 8.88402344 16.9621875 8.89304687 16.234375 8.90234375 C14.48943902 8.92592397 12.74467705 8.96179539 11 9 Z " fill="#E86C2A" transform="translate(143,7)"/>
<path d="M0 0 C4.68829359 2.15141579 7.53838859 5.12226462 10.48046875 9.3125 C11.50020004 12.37169388 11.59580477 14.43668025 11.578125 17.63671875 C11.57490234 18.66474609 11.57167969 19.69277344 11.56835938 20.75195312 C11.55579102 22.35973633 11.55579102 22.35973633 11.54296875 24 C11.53845703 25.08345703 11.53394531 26.16691406 11.52929688 27.28320312 C11.51750632 29.95965894 11.49957083 32.63608639 11.48046875 35.3125 C7.52046875 35.3125 3.56046875 35.3125 -0.51953125 35.3125 C-0.53371094 33.92675781 -0.54789062 32.54101562 -0.5625 31.11328125 C-0.60940923 29.28382122 -0.65765657 27.45439515 -0.70703125 25.625 C-0.71283203 24.71298828 -0.71863281 23.80097656 -0.72460938 22.86132812 C-0.87371978 18.305177 -1.06525298 15.94975146 -3.76953125 12.15625 C-6.80882175 10.11854387 -7.81043135 9.8167045 -11.33203125 10.5 C-12.12222656 10.63792969 -12.91242188 10.77585937 -13.7265625 10.91796875 C-14.31824219 11.04816406 -14.90992188 11.17835937 -15.51953125 11.3125 C-16.47121808 14.16756049 -16.70962585 16.22187282 -16.8359375 19.19921875 C-16.87783203 20.13701172 -16.91972656 21.07480469 -16.96289062 22.04101562 C-17.00220703 23.01748047 -17.04152344 23.99394531 -17.08203125 25 C-17.12521484 25.98806641 -17.16839844 26.97613281 -17.21289062 27.99414062 C-17.31894667 30.43342972 -17.41974099 32.87294654 -17.51953125 35.3125 C-21.47953125 35.3125 -25.43953125 35.3125 -29.51953125 35.3125 C-29.62769175 31.43674892 -29.70693445 27.56403041 -29.76953125 23.6875 C-29.80304688 22.59308594 -29.8365625 21.49867187 -29.87109375 20.37109375 C-29.94819854 14.00994847 -29.85961027 10.11193045 -25.51953125 5.3125 C-18.0961642 -1.36853035 -9.749073 -2.66021217 0 0 Z " fill="#E86C2A" transform="translate(257.51953125,6.6875)"/>
<path d="M0 0 C61.05 0 122.1 0 185 0 C185 0.99 185 1.98 185 3 C123.95 3 62.9 3 0 3 C0 2.01 0 1.02 0 0 Z " fill="#1D1D1B" transform="translate(85,47)"/>
<path d="M0 0 C11.88 0 23.76 0 36 0 C37.2 7.2 37.2 7.2 35 11 C30.18161248 15.44774232 26.80020606 16.12576509 20.36328125 16.09765625 C19.06455078 16.09443359 17.76582031 16.09121094 16.42773438 16.08789062 C15.05598892 16.07953531 13.68424413 16.07107037 12.3125 16.0625 C10.92903805 16.05748335 9.54557437 16.05292073 8.16210938 16.04882812 C4.77469605 16.03702529 1.38736967 16.02056019 -2 16 C-2 12.37 -2 8.74 -2 5 C10.375 4.505 10.375 4.505 23 4 C16.55330546 3.71123136 16.55330546 3.71123136 10.10620117 3.43188477 C9.30158447 3.39377686 8.49696777 3.35566895 7.66796875 3.31640625 C6.84578857 3.27974854 6.0236084 3.24309082 5.17651367 3.20532227 C3 3 3 3 0 2 C0 1.34 0 0.68 0 0 Z " fill="#036935" transform="translate(88,26)"/>
<path d="M0 0 C13.53 0 27.06 0 41 0 C41 5.28 41 10.56 41 16 C37.04 16 33.08 16 29 16 C29 13.36 29 10.72 29 8 C23.39 8 17.78 8 12 8 C12 10.64 12 13.28 12 16 C8.04 16 4.08 16 0 16 C0 10.72 0 5.44 0 0 Z " fill="#046935" transform="translate(185,26)"/>
<path d="M0 0 C4.29 0 8.58 0 13 0 C13 11.88 13 23.76 13 36 C8.71 36 4.42 36 0 36 C0 24.12 0 12.24 0 0 Z " fill="#E86C2A" transform="translate(127,6)"/>
<path d="M0 0 C12.87 0 25.74 0 39 0 C36.96863037 4.06273927 35.64933162 5.48022341 32 8 C27.96072066 9.2767778 23.9439577 9.11066383 19.75 9.0625 C19.00492188 9.05798828 18.25984375 9.05347656 17.4921875 9.04882812 C15.6614236 9.03709246 13.83070127 9.0191585 12 9 C12 11.31 12 13.62 12 16 C8.04 16 4.08 16 0 16 C0 10.72 0 5.44 0 0 Z " fill="#056935" transform="translate(143,26)"/>
<path d="M0 0 C4.29 0 8.58 0 13 0 C13 5.28 13 10.56 13 16 C8.71 16 4.42 16 0 16 C0 10.72 0 5.44 0 0 Z " fill="#036935" transform="translate(127,26)"/>
<path d="M0 0 C1.98 0 3.96 0 6 0 C6.66 1.65 7.32 3.3 8 5 C9.65 5 11.3 5 13 5 C13 5.66 13 6.32 13 7 C14.08539063 7.17015625 15.17078125 7.3403125 16.2890625 7.515625 C17.73450289 7.75966039 19.17980856 8.00449462 20.625 8.25 C21.33785156 8.35957031 22.05070312 8.46914063 22.78515625 8.58203125 C27.67312807 9.43406303 31.03094879 10.84918396 35 14 C36 16 36 16 36.3125 19.875 C36.74154819 23.91096178 38.09241895 25.18933832 41 28 C40.875 30.6875 40.875 30.6875 40 33 C37.10687304 34.44656348 35.23433934 34.29947586 32 34 C29.22186366 32.85576759 26.61037613 31.48407171 24 30 C24 29.34 24 28.68 24 28 C27.08604422 28.43061082 29.75091296 28.89324841 32.625 30.125 C35.27375481 31.10085704 36.39767153 30.96382536 39 30 C38.195625 29.505 37.39125 29.01 36.5625 28.5 C32.98400809 25.00878838 33.23455587 22.92567321 33 18 C33 17.01 33 16.02 33 15 C27.23450471 12.56075199 21.84147948 11.36153053 15.63671875 10.52734375 C13 10 13 10 10 8 C7.37468476 7.83286431 7.37468476 7.83286431 5 8 C5 5.69 5 3.38 5 1 C4.01 1 3.02 1 2 1 C2 5.62 2 10.24 2 15 C1.01 15.495 1.01 15.495 0 16 C0 10.72 0 5.44 0 0 Z " fill="#E86C2A" transform="translate(33,13)"/>
<path d="M0 0 C3.96 0 7.92 0 12 0 C12 5.28 12 10.56 12 16 C8.04 16 4.08 16 0 16 C0 10.72 0 5.44 0 0 Z " fill="#036935" transform="translate(257,26)"/>
<path d="M0 0 C3.96 0 7.92 0 12 0 C12 5.28 12 10.56 12 16 C8.04 16 4.08 16 0 16 C0 10.72 0 5.44 0 0 Z " fill="#036935" transform="translate(228,26)"/>
<path d="M0 0 C3.9126984 1.3042328 6.37310241 2.78934739 9 6 C9 6.99 9 7.98 9 9 C11.31 9.33 13.62 9.66 16 10 C16 10.99 16 11.98 16 13 C14.33157466 12.67558396 12.66519519 12.34060811 11 12 C10.2575 11.87625 9.515 11.7525 8.75 11.625 C8.1725 11.41875 7.595 11.2125 7 11 C6.67 10.01 6.34 9.02 6 8 C4.62514468 6.45833358 4.62514468 6.45833358 3 5 C2 4 1 3 0 2 C-2.15730446 5.59550743 -2.79456868 8.82289657 -3 13 C-2.51160011 14.57996031 -1.96678039 16.14328337 -1.375 17.6875 C-0.50390625 19.9921875 -0.50390625 19.9921875 0 22 C-1.3125 24.3125 -1.3125 24.3125 -3 26 C-3 27.32 -3 28.64 -3 30 C-3.66 30 -4.32 30 -5 30 C-5.07013935 26.98400776 -5.07609357 24.31959301 -4.375 21.375 C-3.7628492 19.02000307 -3.7628492 19.02000307 -4.9375 17.1875 C-6.5769046 13.81225524 -6.8040683 10.6116068 -6 7 C-4.28466807 4.35220565 -2.28022162 2.17163964 0 0 Z " fill="#006936" transform="translate(16,0)"/>
<path d="M0 0 C1.3412645 -0.00945648 1.3412645 -0.00945648 2.70962524 -0.019104 C4.14572647 -0.01303131 4.14572647 -0.01303131 5.61083984 -0.00683594 C6.59925873 -0.00874939 7.58767761 -0.01066284 8.60604858 -0.01263428 C10.69228368 -0.01399383 12.7785273 -0.01031343 14.86474609 -0.00195312 C18.0667608 0.00877226 21.26821733 -0.00186797 24.47021484 -0.01464844 C26.49625775 -0.01332725 28.52230031 -0.0107657 30.54833984 -0.00683594 C31.50978912 -0.0108844 32.4712384 -0.01493286 33.46182251 -0.019104 C34.34969452 -0.01279968 35.23756653 -0.00649536 36.15234375 0 C36.93525787 0.00159119 37.718172 0.00318237 38.52481079 0.00482178 C40.44677734 0.25878906 40.44677734 0.25878906 42.44677734 2.25878906 C25.61677734 2.25878906 8.78677734 2.25878906 -8.55322266 2.25878906 C-4.88916126 0.42675837 -3.80969434 0.00772708 0 0 Z " fill="#E86C2A" transform="translate(12.55322265625,47.7412109375)"/>
<path d="M0 0 C0 0.99 0 1.98 0 3 C-5.4972813 8.03917453 -10.22643312 9.34105904 -17.44140625 10.4375 C-20.22362258 10.88683939 -20.22362258 10.88683939 -23 13 C-23.72965366 15.56282742 -23.72965366 15.56282742 -24 18 C-24.66 17.01 -25.32 16.02 -26 15 C-25.29864375 11.88286113 -24.44649447 10.37672971 -22 8.3125 C-19.26787392 7.11719484 -17.15815469 6.61721873 -14.25 6.125 C-8.80954212 5.17741274 -4.63058679 2.93046797 0 0 Z " fill="#E86C2A" transform="translate(30,28)"/>
</svg>
